<svg width="1080" height="1080" viewBox="0 0 1080 1080" fill="none" xmlns="http://www.w3.org/2000/svg">
<path d="M540 974.7C787.976 974.7 989 773.676 989 525.7C989 277.724 787.976 76.7 540 76.7C292.024 76.7 91 277.724 91 525.7C91 773.676 292.024 974.7 540 974.7Z" fill="#110044"/>
<path d="M731.8 755.2H638.8V493L731.8 488.7V755.2Z" fill="#F5CD2E"/>
<path d="M686.2 478C717.791 478 743.4 454.002 743.4 424.4C743.4 394.798 717.791 370.8 686.2 370.8C654.609 370.8 629 394.798 629 424.4C629 454.002 654.609 478 686.2 478Z" fill="#F5CD2E"/>
<path d="M450.8 245.9H341.4V755.2H450.8V245.9Z" fill="#F5CD2E"/>
<path d="M598.2 315.4H503.4V755.2H598.2V315.4Z" fill="#F5CD2E"/>
</svg>
