<?xml version="1.0" encoding="utf-8"?>
<!-- Generator: Adobe Illustrator 23.0.5, SVG Export Plug-In . SVG Version: 6.00 Build 0)  -->
<svg version="1.1" id="Capa_1" xmlns="http://www.w3.org/2000/svg" xmlns:xlink="http://www.w3.org/1999/xlink" x="0px" y="0px"
	 viewBox="0 0 375 375" style="enable-background:new 0 0 375 375;" xml:space="preserve">
<style type="text/css">
	.st0{clip-path:url(#SVGID_2_);fill:#110043;}
	.st1{fill:#FFFFFF;}
	.st2{fill:#F5CD2E;}
</style>
<g>
	<defs>
		<rect id="SVGID_1_" width="375" height="375"/>
	</defs>
	<clipPath id="SVGID_2_">
		<use xlink:href="#SVGID_1_"  style="overflow:visible;"/>
	</clipPath>
	<rect class="st0" width="375" height="375"/>
</g>
<g>
	<path class="st1" d="M200.9,175.5c4.4,0,8.8,0,13.2,0c4,8.5,7.9,17,11.9,25.5c0.1,0,0.1,0,0.1,0c0,0,0,0,0,0c4-8.5,8-16.9,12-25.4
		c4.4,0,8.8,0,13.2,0c0,13.8,0,27.7,0,41.5c-3.4,0-6.8,0-10.2,0c0-8,0-16.1,0-24.1c0,0-0.1,0-0.1,0c-3.6,8-7.3,16.1-10.9,24.1
		c-2.7,0-5.3,0-7.9,0c-3.6-8-7.3-16.1-10.9-24.1c-0.1,0-0.1,0-0.1,0c0,0,0,0,0,0c0,0,0,0.1,0,0.1c0,0.1,0,0.1,0,0.2
		c0,7.9,0,15.7,0,23.6c0,0,0,0.1,0,0.1c0,0,0,0,0,0c-0.4,0.1-9.4,0.1-10.2,0C200.9,203.2,200.9,189.4,200.9,175.5z"/>
	<path class="st1" d="M282.5,217c-3.5,0-6.8,0-10.2,0c0-13.8,0-27.6,0-41.5c0.1,0,0.2-0.1,0.4-0.1c3.1,0,6.2,0,9.3,0
		c0.4,0,0.5,0.2,0.7,0.4c2.4,2.9,4.8,5.9,7.1,8.8c4.2,5.2,8.4,10.4,12.7,15.6c0.1,0.2,0.3,0.3,0.4,0.4c0,0,0.1,0,0.1,0
		c-0.1-8.4-0.2-16.8-0.3-25.2c3.4,0,6.8,0,10.2,0c0,13.8,0,27.6,0,41.5c-0.2,0-0.4,0-0.6,0c-3.1,0-6.3,0-9.4,0
		c-0.4,0-0.6-0.1-0.9-0.4c-6.5-8.3-12.9-16.6-19.4-25c-0.1-0.2-0.2-0.3-0.4-0.5c0,0-0.1,0-0.1,0C282.2,199.8,282.3,208.4,282.5,217z
		"/>
	<path class="st1" d="M320.9,217.1c0-13.9,0-27.7,0-41.5c0.1,0,0.3,0,0.4,0c4.8,0,9.7,0,14.5,0c4.1,0,8.1,0.8,11.9,2.5
		c5.8,2.7,9.3,7.2,10.5,13.5c0.6,3.6,0.6,7.3-0.3,10.9c-1.5,5.9-5.1,10-10.7,12.3c-2.5,1.1-5.2,1.7-7.9,2c-1.4,0.1-2.9,0.2-4.3,0.2
		c-4.5,0-8.9,0-13.4,0C321.4,217.1,321.2,217.1,320.9,217.1z M331.2,207.2c0.1,0,0.2,0,0.3,0c2.1,0,4.2,0,6.3-0.1
		c1.6-0.1,3.1-0.4,4.6-0.9c2.8-1,4.7-2.8,5.4-5.8c0.3-1.1,0.4-2.2,0.5-3.3c0.1-1.7,0-3.5-0.5-5.2c-0.5-1.9-1.4-3.5-3.1-4.6
		c-0.8-0.6-1.7-1-2.7-1.3c-1.6-0.5-3.3-0.7-5-0.8c-1.8-0.1-3.6,0-5.3,0c-0.1,0-0.3,0-0.4,0C331.2,192.7,331.2,199.9,331.2,207.2z"/>
	<path class="st1" d="M180.7,217c-10.8,0-21.6,0-32.3,0c0-13.8,0-27.7,0-41.5c11,0,22,0,33,0c-0.3,3.3-0.6,6.5-0.8,9.8
		c-1.2,0-2.5,0-3.7,0c-1.2,0-2.4,0-3.6,0c-1.2,0-2.4,0-3.7,0c-1.2,0-2.4,0-3.6,0c-1.2,0-2.4,0-3.7,0c-1.2,0-2.4,0-3.6,0
		c0,1.9,0,3.6,0,5.5c4.8,0,9.7,0,14.6,0c-0.3,3.3-0.6,6.6-0.8,9.9c-4.6,0-9.2,0-13.7,0c0,2.2,0,4.3,0,6.6c7.6,0,15.2,0,22.9,0
		C181.2,210.5,180.9,213.8,180.7,217z"/>
	<path class="st1" d="M47.7,195.5c3.4,0,6.8,0,10.1,0c0.1,0.4,0.2,17,0,17.9c-1.7,0.6-3.4,1.3-5.1,1.9c-2.5,0.9-5,1.5-7.6,1.8
		c-2.6,0.3-5.3,0.4-7.9,0.2c-3.2-0.2-6.3-0.7-9.3-2c-5.8-2.4-9.6-6.7-11-12.9c-1-4.3-0.9-8.7,0.2-13c1.5-5.7,5.1-9.6,10.4-11.9
		c2.6-1.2,5.4-1.8,8.3-2c3.8-0.3,7.5-0.1,11.2,0.4c2.1,0.3,4.2,0.7,6.2,1.4c0.2,0.1,0.4,0.1,0.7,0.2c-1,3.1-1.9,6.2-2.9,9.3
		c-0.9-0.2-1.8-0.4-2.7-0.6c-3.6-0.7-7.1-1.1-10.8-0.9c-1.6,0.1-3.1,0.3-4.6,0.9c-3.1,1.1-5.1,3.2-5.9,6.5c-0.6,2.5-0.6,5,0,7.4
		c0.8,3.3,2.9,5.5,6.1,6.6c1.4,0.5,2.9,0.8,4.4,0.8c2,0,4,0,5.9-0.1c1.2-0.1,2.5-0.4,3.7-0.6c0.1,0,0.2-0.1,0.4-0.1
		C47.7,202.9,47.7,199.2,47.7,195.5z"/>
	<path class="st1" d="M74,217c-3.7,0-7.4,0-11.1,0c4.9-13.6,9.8-27.2,14.7-40.9c4.1-0.2,8.3-0.4,12.4-0.7c5,13.8,9.9,27.7,14.9,41.5
		c-3.7,0-7.4,0-11.1,0c-0.7-2-1.4-4-2-6c-5.2,0-10.5,0-15.7,0C75.4,213,74.7,215,74,217z M88.4,201.1c-0.1-0.7-4.2-12.7-4.5-13.1
		c-1.5,4.4-2.9,8.7-4.4,13.1C82.5,201.1,85.4,201.1,88.4,201.1z"/>
	<polygon class="st2" points="266.3,216 256.5,216 256.5,188.4 266.3,187.9 	"/>
	<ellipse class="st2" cx="261.5" cy="181.1" rx="6" ry="5.7"/>
	<rect x="134.6" y="172.2" class="st2" width="9.3" height="43.6"/>
	<rect x="123.2" y="179.1" class="st2" width="8.1" height="37.7"/>
	<rect x="111.9" y="182.1" class="st2" width="7.3" height="34.4"/>
</g>
</svg>
