<svg width="246" height="83" viewBox="0 0 246 83" fill="none" xmlns="http://www.w3.org/2000/svg">
<path d="M131.787 28.7324C134.703 28.7324 137.578 28.7324 140.473 28.7324C143.075 34.3784 145.677 40.0142 148.268 45.6295C148.319 45.6398 148.329 45.65 148.339 45.65C148.349 45.65 148.359 45.6398 148.369 45.6295C150.981 40.004 153.593 34.3784 156.215 28.7426C159.1 28.7426 161.985 28.7426 164.901 28.7426C164.901 37.9238 164.901 47.1051 164.901 56.3068C162.674 56.3068 160.467 56.3068 158.199 56.3068C158.199 50.9682 158.199 45.6398 158.199 40.3216C158.169 40.3114 158.139 40.3114 158.108 40.3011C155.719 45.6398 153.33 50.9784 150.941 56.3273C149.199 56.3273 147.489 56.3273 145.737 56.3273C143.348 50.9989 140.959 45.65 138.57 40.3114C138.529 40.3216 138.519 40.3216 138.509 40.3216C138.499 40.3216 138.489 40.3319 138.489 40.3421C138.479 40.3626 138.479 40.3933 138.479 40.4138C138.479 40.4548 138.479 40.4856 138.479 40.5266C138.479 45.7422 138.479 50.9579 138.479 56.1633C138.479 56.1838 138.479 56.2146 138.469 56.2351C138.469 56.2453 138.459 56.2556 138.459 56.2658C138.195 56.3375 132.314 56.358 131.787 56.2863C131.787 47.1153 131.787 37.9443 131.787 28.7324Z" fill="#001242"/>
<path d="M185.3 56.3068C183.022 56.3068 180.815 56.3068 178.588 56.3068C178.588 47.1153 178.588 37.9546 178.588 28.7631C178.659 28.7528 178.74 28.7221 178.821 28.7221C180.866 28.7221 182.9 28.7221 184.945 28.7119C185.188 28.7119 185.29 28.8451 185.411 28.9988C186.97 30.9457 188.529 32.8926 190.088 34.8498C192.852 38.303 195.626 41.7664 198.389 45.2196C198.47 45.3221 198.561 45.4143 198.642 45.5065C198.673 45.4963 198.693 45.486 198.723 45.486C198.663 39.9117 198.592 34.3477 198.531 28.7426C200.779 28.7426 202.996 28.7426 205.233 28.7426C205.233 37.9238 205.233 47.1051 205.233 56.3068C205.101 56.317 204.98 56.3273 204.868 56.3273C202.803 56.3273 200.738 56.3273 198.673 56.3375C198.41 56.3375 198.258 56.2453 198.096 56.0506C193.864 50.5275 189.622 45.0044 185.381 39.4814C185.3 39.3789 185.219 39.2764 185.148 39.174C185.128 39.1842 185.097 39.1944 185.077 39.2047C185.148 44.8917 185.219 50.5788 185.3 56.3068Z" fill="#001242"/>
<path d="M210.517 56.3273C210.517 47.1051 210.517 37.9443 210.517 28.7528C210.619 28.7426 210.71 28.7221 210.801 28.7221C213.969 28.7221 217.138 28.7016 220.307 28.7323C223.02 28.7631 225.642 29.2652 228.112 30.4231C231.918 32.206 234.247 35.1879 234.976 39.3891C235.401 41.8176 235.381 44.2462 234.793 46.6337C233.832 50.5583 231.422 53.2532 227.768 54.8312C226.107 55.5485 224.366 55.9891 222.564 56.1633C221.623 56.2555 220.671 56.317 219.73 56.317C216.804 56.3375 213.878 56.3273 210.953 56.3273C210.821 56.3273 210.689 56.3273 210.517 56.3273ZM217.27 49.7692C217.351 49.7795 217.411 49.8 217.462 49.8C218.849 49.7795 220.236 49.7897 221.613 49.7283C222.635 49.6873 223.637 49.4926 224.609 49.1544C226.462 48.5089 227.666 47.2588 228.152 45.3221C228.335 44.6048 228.436 43.8773 228.466 43.1395C228.517 41.9816 228.446 40.8339 228.132 39.7068C227.788 38.4567 227.191 37.3705 226.087 36.6327C225.541 36.2638 224.943 35.9974 224.305 35.8027C223.242 35.4748 222.149 35.3313 221.036 35.2904C219.871 35.2494 218.707 35.2699 217.543 35.2596C217.452 35.2596 217.361 35.2801 217.27 35.2904C217.27 40.1371 217.27 44.943 217.27 49.7692Z" fill="#001242"/>
<path d="M118.515 56.3068C111.419 56.3068 104.373 56.3068 97.2965 56.3068C97.2965 47.1153 97.2965 37.9341 97.2965 28.7426C104.504 28.7426 111.702 28.7426 118.951 28.7426C118.768 30.9047 118.586 33.0566 118.404 35.2494C117.594 35.2597 116.794 35.2494 115.995 35.2597C115.205 35.2597 114.415 35.2597 113.626 35.2597C112.826 35.2597 112.026 35.2597 111.216 35.2597C110.427 35.2597 109.637 35.2597 108.847 35.2597C108.048 35.2597 107.248 35.2597 106.438 35.2597C105.648 35.2597 104.869 35.2597 104.059 35.2597C104.059 36.4893 104.059 37.6779 104.059 38.9076C107.238 38.9076 110.417 38.9076 113.636 38.9076C113.454 41.1106 113.271 43.2625 113.079 45.4451C110.062 45.4451 107.076 45.4451 104.059 45.4451C104.059 46.9104 104.059 48.3245 104.059 49.8C109.06 49.8 114.041 49.8 119.062 49.8C118.88 52.0031 118.698 54.1447 118.515 56.3068Z" fill="#001242"/>
<path d="M31.322 42.0226C33.5694 42.0226 35.7763 42.0226 37.9832 42.0226C38.0642 42.2788 38.0844 53.2737 38.0136 53.8885C36.9202 54.2984 35.8067 54.7185 34.683 55.1182C33.0632 55.692 31.403 56.1019 29.6921 56.2966C27.961 56.4912 26.2299 56.5425 24.4886 56.4605C22.383 56.358 20.338 55.9687 18.3943 55.1489C14.5677 53.5299 12.0975 50.7222 11.1864 46.5927C10.5588 43.7236 10.5689 40.8237 11.318 37.9751C12.3 34.2247 14.6486 31.622 18.1311 30.0747C19.8521 29.3062 21.6743 28.8963 23.5472 28.7221C26.0173 28.4967 28.4672 28.6504 30.917 29.009C32.2837 29.214 33.6402 29.4906 34.9664 29.9108C35.1081 29.9517 35.2398 30.003 35.422 30.0645C34.7842 32.1343 34.1565 34.194 33.5289 36.2536C32.9114 36.1101 32.3343 35.9667 31.7573 35.854C29.4289 35.4133 27.0802 35.0957 24.7012 35.2289C23.6788 35.2904 22.6765 35.4543 21.7047 35.8027C19.6598 36.5405 18.3437 37.9546 17.8173 40.0859C17.4123 41.7254 17.4225 43.3752 17.8173 45.0147C18.3538 47.228 19.7306 48.6626 21.8464 49.3901C22.7879 49.7078 23.7496 49.9025 24.7417 49.9025C26.0375 49.9127 27.3435 49.9025 28.6393 49.8103C29.4593 49.759 30.2691 49.5541 31.079 49.4209C31.1499 49.4106 31.2106 49.3799 31.322 49.3491C31.322 46.9001 31.322 44.4716 31.322 42.0226Z" fill="#001242"/>
<path d="M48.5723 56.3068C46.1427 56.3068 43.7435 56.3068 41.2936 56.3068C44.5027 47.2485 47.7119 38.221 50.921 29.173C53.6442 29.0295 56.3573 28.8758 59.0805 28.7324C62.3402 37.9238 65.6 47.1051 68.8598 56.3171C66.4099 56.3171 64.0207 56.3171 61.581 56.3171C61.1356 54.9952 60.6901 53.6631 60.2447 52.3105C56.8128 52.3105 53.3911 52.3105 49.9188 52.3105C49.4632 53.6119 49.0178 54.944 48.5723 56.3068ZM57.9568 45.7217C57.8859 45.2606 55.1931 37.2578 55.0311 37.0324C54.0694 39.922 53.1077 42.8014 52.1358 45.7217C54.1099 45.7217 56.0333 45.7217 57.9568 45.7217Z" fill="#001242"/>
<path d="M174.69 55.6408H168.262V37.2783L174.69 36.9709V55.6408Z" fill="#FABE4B"/>
<path d="M171.542 36.2126C173.728 36.2126 175.5 34.5335 175.5 32.4622C175.5 30.3909 173.728 28.7119 171.542 28.7119C169.356 28.7119 167.584 30.3909 167.584 32.4622C167.584 34.5335 169.356 36.2126 171.542 36.2126Z" fill="#FABE4B"/>
<path d="M94.3405 26.5088H88.2766V55.4563H94.3405V26.5088Z" fill="#FABE4B"/>
<path d="M86.1101 31.0994H80.7953V56.1326H86.1101V31.0994Z" fill="#FABE4B"/>
<path d="M78.1733 33.1283H73.3849V55.9789H78.1733V33.1283Z" fill="#FABE4B"/>
</svg>
