<svg version="1.1" id="Capa_1" xmlns="http://www.w3.org/2000/svg" x="0" y="0" viewBox="0 0 2430 810" style="enable-background:new 0 0 2430 810" xml:space="preserve">
    <style>
        .st0{fill:#100042}.st1{fill:#f5cd2e}
    </style>
    <path class="st0" d="M1301.8 280.4h85.8c25.7 55.1 51.4 110.1 77 164.9.5.1.6.2.7.2.1 0 .2-.1.3-.2 25.8-54.9 51.6-109.8 77.5-164.8h85.8v269h-66.2v-156c-.3-.1-.6-.1-.9-.2-23.6 52.1-47.2 104.2-70.8 156.4h-51.4c-23.6-52-47.2-104.2-70.8-156.3-.4.1-.5.1-.6.1-.1 0-.2.1-.2.2-.1.2-.1.5-.1.7v153.7c0 .2 0 .5-.1.7 0 .1-.1.2-.1.3-2.6.7-60.7.9-65.9.2V280.4zM1830.4 549.5h-66.3V280.7c.7-.1 1.5-.4 2.3-.4 20.2 0 40.3 0 60.5-.1 2.4 0 3.4 1.3 4.6 2.8 15.4 19 30.8 38 46.2 57.1 27.3 33.7 54.7 67.5 82 101.2.8 1 1.7 1.9 2.5 2.8.3-.1.5-.2.8-.2-.6-54.4-1.3-108.7-1.9-163.4h66.2v269c-1.3.1-2.5.2-3.6.2-20.4 0-40.8 0-61.2.1-2.6 0-4.1-.9-5.7-2.8-41.8-53.9-83.7-107.8-125.6-161.7-.8-1-1.6-2-2.3-3-.2.1-.5.2-.7.3.7 55.5 1.4 111 2.2 166.9zM2079.5 549.7V280.6c1-.1 1.9-.3 2.8-.3 31.3 0 62.6-.2 93.9.1 26.8.3 52.7 5.2 77.1 16.5 37.6 17.4 60.6 46.5 67.8 87.5 4.2 23.7 4 47.4-1.8 70.7-9.5 38.3-33.3 64.6-69.4 80-16.4 7-33.6 11.3-51.4 13-9.3.9-18.7 1.5-28 1.5-28.9.2-57.8.1-86.7.1h-4.3zm66.7-64c.8.1 1.4.3 1.9.3 13.7-.2 27.4-.1 41-.7 10.1-.4 20-2.3 29.6-5.6 18.3-6.3 30.2-18.5 35-37.4 1.8-7 2.8-14.1 3.1-21.3.5-11.3-.2-22.5-3.3-33.5-3.4-12.2-9.3-22.8-20.2-30-5.4-3.6-11.3-6.2-17.6-8.1-10.5-3.2-21.3-4.6-32.3-5-11.5-.4-23-.2-34.5-.3-.9 0-1.8.2-2.7.3v141.3zM1170.7 549.5H961.1v-269H1175c-1.8 21.1-3.6 42.1-5.4 63.5-8 .1-15.9 0-23.8.1H1027.9v35.6h94.6c-1.8 21.5-3.6 42.5-5.5 63.8h-89.1V486h148.2c-1.8 21.5-3.6 42.4-5.4 63.5zM309.4 410.1h65.8c.8 2.5 1 109.8.3 115.8-10.8 4-21.8 8.1-32.9 12-16 5.6-32.4 9.6-49.3 11.5-17.1 1.9-34.2 2.4-51.4 1.6-20.8-1-41-4.8-60.2-12.8-37.8-15.8-62.2-43.2-71.2-83.5-6.2-28-6.1-56.3 1.3-84.1 9.7-36.6 32.9-62 67.3-77.1 17-7.5 35-11.5 53.5-13.2 24.4-2.2 48.6-.7 72.8 2.8 13.5 2 26.9 4.7 40 8.8 1.4.4 2.7.9 4.5 1.5-6.3 20.2-12.5 40.3-18.7 60.4-6.1-1.4-11.8-2.8-17.5-3.9-23-4.3-46.2-7.4-69.7-6.1-10.1.6-20 2.2-29.6 5.6-20.2 7.2-33.2 21-38.4 41.8-4 16-3.9 32.1 0 48.1 5.3 21.6 18.9 35.6 39.8 42.7 9.3 3.1 18.8 5 28.6 5 12.8.1 25.7 0 38.5-.9 8.1-.5 16.1-2.5 24.1-3.8.7-.1 1.3-.4 2.4-.7v-71.5zM479.8 549.5h-71.9c31.7-88.4 63.4-176.5 95.1-264.8 26.9-1.4 53.7-2.9 80.6-4.3 32.2 89.7 64.4 179.3 96.6 269.2h-71.9c-4.4-12.9-8.8-25.9-13.2-39.1h-102c-4.5 12.7-8.9 25.7-13.3 39zm92.7-103.3c-.7-4.5-27.3-82.6-28.9-84.8-9.5 28.2-19 56.3-28.6 84.8h57.5z"/>
    <path class="st1" d="M1725.6 543h-63.5V363.8l63.5-3z"/>
    <ellipse class="st1" cx="1694.5" cy="316.8" rx="39.1" ry="36.6"/>
    <path class="st1" d="M872 258.7h59.9v282.5H872zM798.1 303.5h52.5v244.3h-52.5zM724.9 323.3h47.3v223h-47.3z"/>
</svg>
