<?xml version="1.0" encoding="utf-8"?>
<!-- Generator: Adobe Illustrator 23.0.5, SVG Export Plug-In . SVG Version: 6.00 Build 0)  -->
<svg version="1.1" id="Capa_1" xmlns="http://www.w3.org/2000/svg" xmlns:xlink="http://www.w3.org/1999/xlink" x="0px" y="0px"
	 viewBox="0 0 2430 810" style="enable-background:new 0 0 2430 810;" xml:space="preserve">
<style type="text/css">
	.st0{fill:#100042;}
	.st1{fill:#F5CD2E;}
</style>
<path class="st0" d="M1301.8,280.4c28.8,0,57.2,0,85.8,0c25.7,55.1,51.4,110.1,77,164.9c0.5,0.1,0.6,0.2,0.7,0.2
	c0.1,0,0.2-0.1,0.3-0.2c25.8-54.9,51.6-109.8,77.5-164.8c28.5,0,57,0,85.8,0c0,89.6,0,179.2,0,269c-22,0-43.8,0-66.2,0
	c0-52.1,0-104.1,0-156c-0.3-0.1-0.6-0.1-0.9-0.2c-23.6,52.1-47.2,104.2-70.8,156.4c-17.2,0-34.1,0-51.4,0
	c-23.6-52-47.2-104.2-70.8-156.3c-0.4,0.1-0.5,0.1-0.6,0.1c-0.1,0-0.2,0.1-0.2,0.2c-0.1,0.2-0.1,0.5-0.1,0.7c0,0.4,0,0.7,0,1.1
	c0,50.9,0,101.8,0,152.6c0,0.2,0,0.5-0.1,0.7c0,0.1-0.1,0.2-0.1,0.3c-2.6,0.7-60.7,0.9-65.9,0.2
	C1301.8,459.8,1301.8,370.3,1301.8,280.4z"/>
<path class="st0" d="M1830.4,549.5c-22.5,0-44.3,0-66.3,0c0-89.7,0-179.1,0-268.8c0.7-0.1,1.5-0.4,2.3-0.4c20.2,0,40.3,0,60.5-0.1
	c2.4,0,3.4,1.3,4.6,2.8c15.4,19,30.8,38,46.2,57.1c27.3,33.7,54.7,67.5,82,101.2c0.8,1,1.7,1.9,2.5,2.8c0.3-0.1,0.5-0.2,0.8-0.2
	c-0.6-54.4-1.3-108.7-1.9-163.4c22.2,0,44.1,0,66.2,0c0,89.6,0,179.2,0,269c-1.3,0.1-2.5,0.2-3.6,0.2c-20.4,0-40.8,0-61.2,0.1
	c-2.6,0-4.1-0.9-5.7-2.8c-41.8-53.9-83.7-107.8-125.6-161.7c-0.8-1-1.6-2-2.3-3c-0.2,0.1-0.5,0.2-0.7,0.3
	C1828.9,438.1,1829.6,493.6,1830.4,549.5z"/>
<path class="st0" d="M2079.5,549.7c0-90,0-179.4,0-269.1c1-0.1,1.9-0.3,2.8-0.3c31.3,0,62.6-0.2,93.9,0.1
	c26.8,0.3,52.7,5.2,77.1,16.5c37.6,17.4,60.6,46.5,67.8,87.5c4.2,23.7,4,47.4-1.8,70.7c-9.5,38.3-33.3,64.6-69.4,80
	c-16.4,7-33.6,11.3-51.4,13c-9.3,0.9-18.7,1.5-28,1.5c-28.9,0.2-57.8,0.1-86.7,0.1C2082.5,549.7,2081.2,549.7,2079.5,549.7z
	 M2146.2,485.7c0.8,0.1,1.4,0.3,1.9,0.3c13.7-0.2,27.4-0.1,41-0.7c10.1-0.4,20-2.3,29.6-5.6c18.3-6.3,30.2-18.5,35-37.4
	c1.8-7,2.8-14.1,3.1-21.3c0.5-11.3-0.2-22.5-3.3-33.5c-3.4-12.2-9.3-22.8-20.2-30c-5.4-3.6-11.3-6.2-17.6-8.1
	c-10.5-3.2-21.3-4.6-32.3-5c-11.5-0.4-23-0.2-34.5-0.3c-0.9,0-1.8,0.2-2.7,0.3C2146.2,391.7,2146.2,438.6,2146.2,485.7z"/>
<path class="st0" d="M1170.7,549.5c-70.1,0-139.7,0-209.6,0c0-89.7,0-179.3,0-269c71.2,0,142.3,0,213.9,0
	c-1.8,21.1-3.6,42.1-5.4,63.5c-8,0.1-15.9,0-23.8,0.1c-7.8,0-15.6,0-23.4,0c-7.9,0-15.8,0-23.8,0c-7.8,0-15.6,0-23.4,0
	c-7.9,0-15.8,0-23.8,0c-7.8,0-15.5,0-23.5,0c0,12,0,23.6,0,35.6c31.4,0,62.8,0,94.6,0c-1.8,21.5-3.6,42.5-5.5,63.8
	c-29.8,0-59.3,0-89.1,0c0,14.3,0,28.1,0,42.5c49.4,0,98.6,0,148.2,0C1174.3,507.5,1172.5,528.4,1170.7,549.5z"/>
<path class="st0" d="M309.4,410.1c22.2,0,44,0,65.8,0c0.8,2.5,1,109.8,0.3,115.8c-10.8,4-21.8,8.1-32.9,12
	c-16,5.6-32.4,9.6-49.3,11.5c-17.1,1.9-34.2,2.4-51.4,1.6c-20.8-1-41-4.8-60.2-12.8c-37.8-15.8-62.2-43.2-71.2-83.5
	c-6.2-28-6.1-56.3,1.3-84.1c9.7-36.6,32.9-62,67.3-77.1c17-7.5,35-11.5,53.5-13.2c24.4-2.2,48.6-0.7,72.8,2.8
	c13.5,2,26.9,4.7,40,8.8c1.4,0.4,2.7,0.9,4.5,1.5c-6.3,20.2-12.5,40.3-18.7,60.4c-6.1-1.4-11.8-2.8-17.5-3.9
	c-23-4.3-46.2-7.4-69.7-6.1c-10.1,0.6-20,2.2-29.6,5.6c-20.2,7.2-33.2,21-38.4,41.8c-4,16-3.9,32.1,0,48.1
	c5.3,21.6,18.9,35.6,39.8,42.7c9.3,3.1,18.8,5,28.6,5c12.8,0.1,25.7,0,38.5-0.9c8.1-0.5,16.1-2.5,24.1-3.8c0.7-0.1,1.3-0.4,2.4-0.7
	C309.4,457.7,309.4,434,309.4,410.1z"/>
<path class="st0" d="M479.8,549.5c-24,0-47.7,0-71.9,0c31.7-88.4,63.4-176.5,95.1-264.8c26.9-1.4,53.7-2.9,80.6-4.3
	c32.2,89.7,64.4,179.3,96.6,269.2c-24.2,0-47.8,0-71.9,0c-4.4-12.9-8.8-25.9-13.2-39.1c-33.9,0-67.7,0-102,0
	C488.6,523.2,484.2,536.2,479.8,549.5z M572.5,446.2c-0.7-4.5-27.3-82.6-28.9-84.8c-9.5,28.2-19,56.3-28.6,84.8
	C534.5,446.2,553.5,446.2,572.5,446.2z"/>
<polygon class="st1" points="1725.6,543 1662.1,543 1662.1,363.8 1725.6,360.8 "/>
<ellipse class="st1" cx="1694.5" cy="316.8" rx="39.1" ry="36.6"/>
<rect x="872" y="258.7" class="st1" width="59.9" height="282.5"/>
<rect x="798.1" y="303.5" class="st1" width="52.5" height="244.3"/>
<rect x="724.9" y="323.3" class="st1" width="47.3" height="223"/>
</svg>
