<svg width="2218" height="293" viewBox="0 0 2218 293" fill="none" xmlns="http://www.w3.org/2000/svg">
<path d="M1195.76 21.7C1224.56 21.7 1252.96 21.7 1281.56 21.7C1307.26 76.8 1332.96 131.8 1358.56 186.6C1359.06 186.7 1359.16 186.8 1359.26 186.8C1359.36 186.8 1359.46 186.7 1359.56 186.6C1385.36 131.7 1411.16 76.8 1437.06 21.8C1465.56 21.8 1494.06 21.8 1522.86 21.8C1522.86 111.4 1522.86 201 1522.86 290.8C1500.86 290.8 1479.06 290.8 1456.66 290.8C1456.66 238.7 1456.66 186.7 1456.66 134.8C1456.36 134.7 1456.06 134.7 1455.76 134.6C1432.16 186.7 1408.56 238.8 1384.96 291C1367.76 291 1350.86 291 1333.56 291C1309.96 239 1286.36 186.8 1262.76 134.7C1262.36 134.8 1262.26 134.8 1262.16 134.8C1262.06 134.8 1261.96 134.9 1261.96 135C1261.86 135.2 1261.86 135.5 1261.86 135.7C1261.86 136.1 1261.86 136.4 1261.86 136.8C1261.86 187.7 1261.86 238.6 1261.86 289.4C1261.86 289.6 1261.86 289.9 1261.76 290.1C1261.76 290.2 1261.66 290.3 1261.66 290.4C1259.06 291.1 1200.96 291.3 1195.76 290.6C1195.76 201.1 1195.76 111.6 1195.76 21.7Z" fill="white"/>
<path d="M1724.36 290.8C1701.86 290.8 1680.06 290.8 1658.06 290.8C1658.06 201.1 1658.06 111.7 1658.06 22C1658.76 21.9 1659.56 21.6 1660.36 21.6C1680.56 21.6 1700.66 21.6 1720.86 21.5C1723.26 21.5 1724.26 22.8 1725.46 24.3C1740.86 43.3 1756.26 62.3 1771.66 81.4C1798.96 115.1 1826.36 148.9 1853.66 182.6C1854.46 183.6 1855.36 184.5 1856.16 185.4C1856.46 185.3 1856.66 185.2 1856.96 185.2C1856.36 130.8 1855.66 76.5 1855.06 21.8C1877.26 21.8 1899.16 21.8 1921.26 21.8C1921.26 111.4 1921.26 201 1921.26 290.8C1919.96 290.9 1918.76 291 1917.66 291C1897.26 291 1876.86 291 1856.46 291.1C1853.86 291.1 1852.36 290.2 1850.76 288.3C1808.96 234.4 1767.06 180.5 1725.16 126.6C1724.36 125.6 1723.56 124.6 1722.86 123.6C1722.66 123.7 1722.36 123.8 1722.16 123.9C1722.86 179.4 1723.56 234.9 1724.36 290.8Z" fill="white"/>
<path d="M1973.46 291C1973.46 201 1973.46 111.6 1973.46 21.9C1974.46 21.8 1975.36 21.6 1976.26 21.6C2007.56 21.6 2038.86 21.4 2070.16 21.7C2096.96 22 2122.86 26.9 2147.26 38.2C2184.86 55.6 2207.86 84.7 2215.06 125.7C2219.26 149.4 2219.06 173.1 2213.26 196.4C2203.76 234.7 2179.96 261 2143.86 276.4C2127.46 283.4 2110.26 287.7 2092.46 289.4C2083.16 290.3 2073.76 290.9 2064.46 290.9C2035.56 291.1 2006.66 291 1977.76 291C1976.46 291 1975.16 291 1973.46 291ZM2040.16 227C2040.96 227.1 2041.56 227.3 2042.06 227.3C2055.76 227.1 2069.46 227.2 2083.06 226.6C2093.16 226.2 2103.06 224.3 2112.66 221C2130.96 214.7 2142.86 202.5 2147.66 183.6C2149.46 176.6 2150.46 169.5 2150.76 162.3C2151.26 151 2150.56 139.8 2147.46 128.8C2144.06 116.6 2138.16 106 2127.26 98.8C2121.86 95.2 2115.96 92.6 2109.66 90.7C2099.16 87.5 2088.36 86.1 2077.36 85.7C2065.86 85.3 2054.36 85.5 2042.86 85.4C2041.96 85.4 2041.06 85.6 2040.16 85.7C2040.16 133 2040.16 179.9 2040.16 227Z" fill="white"/>
<path d="M1064.66 290.8C994.563 290.8 924.963 290.8 855.063 290.8C855.063 201.1 855.063 111.5 855.063 21.8C926.263 21.8 997.363 21.8 1068.96 21.8C1067.16 42.9 1065.36 63.9 1063.56 85.3C1055.56 85.4 1047.66 85.3 1039.76 85.4C1031.96 85.4 1024.16 85.4 1016.36 85.4C1008.46 85.4 1000.56 85.4 992.563 85.4C984.763 85.4 976.963 85.4 969.163 85.4C961.263 85.4 953.364 85.4 945.364 85.4C937.564 85.4 929.864 85.4 921.864 85.4C921.864 97.4 921.864 109 921.864 121C953.264 121 984.663 121 1016.46 121C1014.66 142.5 1012.86 163.5 1010.96 184.8C981.163 184.8 951.664 184.8 921.864 184.8C921.864 199.1 921.864 212.9 921.864 227.3C971.264 227.3 1020.46 227.3 1070.06 227.3C1068.26 248.8 1066.46 269.7 1064.66 290.8Z" fill="white"/>
<path d="M203.364 151.4C225.564 151.4 247.364 151.4 269.164 151.4C269.964 153.9 270.164 261.2 269.464 267.2C258.664 271.2 247.664 275.3 236.564 279.2C220.564 284.8 204.164 288.8 187.264 290.7C170.164 292.6 153.064 293.1 135.864 292.3C115.064 291.3 94.8635 287.5 75.6635 279.5C37.8635 263.7 13.4635 236.3 4.46353 196C-1.73647 168 -1.63647 139.7 5.76353 111.9C15.4635 75.3 38.6635 49.9 73.0635 34.8C90.0635 27.3 108.064 23.3 126.564 21.6C150.964 19.4 175.164 20.9 199.364 24.4C212.864 26.4 226.264 29.1 239.364 33.2C240.764 33.6 242.064 34.1 243.864 34.7C237.564 54.9 231.364 75 225.164 95.1C219.064 93.7 213.364 92.3 207.664 91.2C184.664 86.9 161.464 83.8 137.964 85.1C127.864 85.7 117.964 87.3 108.364 90.7C88.1635 97.9 75.1635 111.7 69.9635 132.5C65.9635 148.5 66.0635 164.6 69.9635 180.6C75.2635 202.2 88.8635 216.2 109.764 223.3C119.064 226.4 128.564 228.3 138.364 228.3C151.164 228.4 164.064 228.3 176.864 227.4C184.964 226.9 192.964 224.9 200.964 223.6C201.664 223.5 202.264 223.2 203.364 222.9C203.364 199 203.364 175.3 203.364 151.4Z" fill="white"/>
<path d="M373.764 290.8C349.764 290.8 326.064 290.8 301.864 290.8C333.564 202.4 365.264 114.3 396.964 26C423.864 24.6 450.664 23.1 477.564 21.7C509.764 111.4 541.964 201 574.164 290.9C549.964 290.9 526.364 290.9 502.264 290.9C497.864 278 493.464 265 489.064 251.8C455.164 251.8 421.364 251.8 387.064 251.8C382.564 264.5 378.164 277.5 373.764 290.8ZM466.464 187.5C465.764 183 439.164 104.9 437.564 102.7C428.064 130.9 418.564 159 408.964 187.5C428.464 187.5 447.464 187.5 466.464 187.5Z" fill="white"/>
<path d="M1619.56 284.3H1556.06V105.1L1619.56 102.1V284.3Z" fill="#F5CD2E"/>
<path d="M1588.46 94.7C1610.06 94.7 1627.56 78.3136 1627.56 58.1C1627.56 37.8864 1610.06 21.5 1588.46 21.5C1566.87 21.5 1549.36 37.8864 1549.36 58.1C1549.36 78.3136 1566.87 94.7 1588.46 94.7Z" fill="#F5CD2E"/>
<path d="M825.863 0H765.963V282.5H825.863V0Z" fill="#F5CD2E"/>
<path d="M744.563 44.8H692.063V289.1H744.563V44.8Z" fill="#F5CD2E"/>
<path d="M666.163 64.6H618.863V287.6H666.163V64.6Z" fill="#F5CD2E"/>
</svg>
